<svg width="24" height="24" viewBox="0 0 24 24" fill="none" xmlns="http://www.w3.org/2000/svg">
<path fill-rule="evenodd" clip-rule="evenodd" d="M15.7161 16.9738H8.49609C8.08209 16.9738 7.74609 16.6378 7.74609 16.2238C7.74609 15.8098 8.08209 15.4738 8.49609 15.4738H15.7161C16.1301 15.4738 16.4661 15.8098 16.4661 16.2238C16.4661 16.6378 16.1301 16.9738 15.7161 16.9738Z" fill="#407BFF"/>
<path fill-rule="evenodd" clip-rule="evenodd" d="M15.7161 12.7872H8.49609C8.08209 12.7872 7.74609 12.4512 7.74609 12.0372C7.74609 11.6232 8.08209 11.2872 8.49609 11.2872H15.7161C16.1301 11.2872 16.4661 11.6232 16.4661 12.0372C16.4661 12.4512 16.1301 12.7872 15.7161 12.7872Z" fill="#407BFF"/>
<path fill-rule="evenodd" clip-rule="evenodd" d="M11.2511 8.61047H8.49609C8.08209 8.61047 7.74609 8.27447 7.74609 7.86047C7.74609 7.44647 8.08209 7.11047 8.49609 7.11047H11.2511C11.6651 7.11047 12.0011 7.44647 12.0011 7.86047C12.0011 8.27447 11.6651 8.61047 11.2511 8.61047Z" fill="#407BFF"/>
<mask id="mask0_157_18191" style="mask-type:luminance" maskUnits="userSpaceOnUse" x="3" y="2" width="19" height="20">
<path fill-rule="evenodd" clip-rule="evenodd" d="M3 2.00024H21.1647V21.91H3V2.00024Z" fill="white"/>
</mask>
<g mask="url(#mask0_157_18191)">
<path fill-rule="evenodd" clip-rule="evenodd" d="M15.909 3.5L8.22 3.504C5.892 3.518 4.5 4.958 4.5 7.357V16.553C4.5 18.968 5.905 20.41 8.256 20.41L15.945 20.407C18.273 20.393 19.665 18.951 19.665 16.553V7.357C19.665 4.942 18.261 3.5 15.909 3.5ZM8.257 21.91C5.113 21.91 3 19.757 3 16.553V7.357C3 4.124 5.047 2.023 8.215 2.004L15.908 2H15.909C19.053 2 21.165 4.153 21.165 7.357V16.553C21.165 19.785 19.118 21.887 15.95 21.907L8.257 21.91Z" fill="#407BFF"/>
</g>
</svg>
