<svg width="35" height="36" viewBox="0 0 35 36" fill="none" xmlns="http://www.w3.org/2000/svg">
<path d="M7.375 29.1857H12.4375V19.2429H22.5625V29.1857H27.625V14.2714L17.5 6.81429L7.375 14.2714V29.1857ZM7.375 32.5C6.44688 32.5 5.65206 32.1752 4.99056 31.5256C4.32907 30.876 3.99888 30.096 4 29.1857V14.2714C4 13.7467 4.11982 13.2495 4.35944 12.78C4.59906 12.3105 4.92925 11.9238 5.35 11.62L15.475 4.16286C15.7844 3.9419 16.1078 3.77619 16.4453 3.66571C16.7828 3.55524 17.1344 3.5 17.5 3.5C17.8656 3.5 18.2172 3.55524 18.5547 3.66571C18.8922 3.77619 19.2156 3.9419 19.525 4.16286L29.65 11.62C30.0719 11.9238 30.4026 12.3105 30.6422 12.78C30.8819 13.2495 31.0011 13.7467 31 14.2714V29.1857C31 30.0971 30.6692 30.8777 30.0077 31.5273C29.3462 32.1769 28.552 32.5011 27.625 32.5H19.1875V22.5571H15.8125V32.5H7.375Z" fill="#00ACEA"/>
</svg>
