<svg width="35" height="36" viewBox="0 0 35 36" fill="none" xmlns="http://www.w3.org/2000/svg">
<path d="M10 28.8323L7.125 32.0692C6.72917 32.5148 6.27584 32.6147 5.765 32.3689C5.25417 32.1231 4.99917 31.6831 5 31.0488V9.12939C5 8.35535 5.245 7.69249 5.735 7.14081C6.225 6.58913 6.81334 6.31376 7.5 6.3147H20.125C20.0417 6.78381 20 7.25293 20 7.72204C20 8.19116 20.0417 8.66027 20.125 9.12939H7.5V26.0176H27.5V14.618C27.9792 14.5008 28.4271 14.3422 28.8438 14.1424C29.2604 13.9425 29.6458 13.6789 30 13.3514V26.0176C30 26.7916 29.755 27.4545 29.265 28.0061C28.775 28.5578 28.1867 28.8332 27.5 28.8323H10ZM18.75 23.2029C19.1042 23.2029 19.4013 23.0678 19.6413 22.7976C19.8813 22.5273 20.0008 22.1933 20 21.7955C20 21.3968 19.88 21.0623 19.64 20.7921C19.4 20.5219 19.1033 20.3872 18.75 20.3882H11.25C10.8958 20.3882 10.5988 20.5233 10.3588 20.7935C10.1188 21.0637 9.99917 21.3977 10 21.7955C10 22.1943 10.12 22.5287 10.36 22.799C10.6 23.0692 10.8967 23.2038 11.25 23.2029H18.75ZM23.75 18.9808C24.1042 18.9808 24.4012 18.8457 24.6413 18.5755C24.8813 18.3053 25.0008 17.9713 25 17.5735C25 17.1747 24.88 16.8402 24.64 16.57C24.4 16.2998 24.1033 16.1652 23.75 16.1661H11.25C10.8958 16.1661 10.5988 16.3012 10.3588 16.5714C10.1188 16.8417 9.99917 17.1757 10 17.5735C10 17.9722 10.12 18.3067 10.36 18.5769C10.6 18.8471 10.8967 18.9818 11.25 18.9808H23.75ZM21.25 11.9441H11.25C10.8958 11.9441 10.5988 12.0792 10.3588 12.3494C10.1188 12.6196 9.99917 12.9536 10 13.3514C10 13.7502 10.12 14.0847 10.36 14.3549C10.6 14.6251 10.8967 14.7597 11.25 14.7588H25V14.618C24.2292 14.4304 23.5258 14.1076 22.89 13.6498C22.2542 13.1919 21.7075 12.6234 21.25 11.9441ZM26.25 11.9441C25.2083 11.9441 24.3229 11.5336 23.5938 10.7127C22.8646 9.8917 22.5 8.89483 22.5 7.72204C22.5 6.54925 22.8646 5.55238 23.5938 4.73143C24.3229 3.91048 25.2083 3.5 26.25 3.5C27.2917 3.5 28.1771 3.91048 28.9062 4.73143C29.6354 5.55238 30 6.54925 30 7.72204C30 8.89483 29.6354 9.8917 28.9062 10.7127C28.1771 11.5336 27.2917 11.9441 26.25 11.9441Z" fill="#C7C6C5"/>
</svg>
