<svg width="35" height="35" viewBox="0 0 35 35" fill="none" xmlns="http://www.w3.org/2000/svg">
<path d="M13.5267 28.6303C13.8147 29.6041 14.4056 30.458 15.2114 31.065C16.0173 31.6721 16.9953 32 18 32C19.0047 32 19.9827 31.6721 20.7886 31.065C21.5944 30.458 22.1853 29.6041 22.4733 28.6303H13.5267ZM6 27.2813H30V23.2344L27.3333 19.1875V12.4427C27.3333 11.2027 27.0919 9.9748 26.6229 8.82915C26.1538 7.68351 25.4663 6.64255 24.5997 5.76571C23.733 4.88887 22.7041 4.19333 21.5717 3.71879C20.4393 3.24424 19.2257 3 18 3C16.7743 3 15.5607 3.24424 14.4283 3.71879C13.2959 4.19333 12.267 4.88887 11.4003 5.76571C10.5337 6.64255 9.84617 7.68351 9.37712 8.82915C8.90808 9.9748 8.66667 11.2027 8.66667 12.4427V19.1875L6 23.2344V27.2813Z" fill="#00ACEA"/>
</svg>
