<svg width="35" height="36" viewBox="0 0 35 36" fill="none" xmlns="http://www.w3.org/2000/svg">
<path fill-rule="evenodd" clip-rule="evenodd" d="M12.2222 9.94444C12.2222 8.23527 12.831 6.5961 13.9145 5.38753C14.998 4.17897 16.4676 3.5 18 3.5C19.5324 3.5 21.002 4.17897 22.0855 5.38753C23.1691 6.5961 23.7778 8.23527 23.7778 9.94444C23.7778 11.6536 23.1691 13.2928 22.0855 14.5014C21.002 15.7099 19.5324 16.3889 18 16.3889C16.4676 16.3889 14.998 15.7099 13.9145 14.5014C12.831 13.2928 12.2222 11.6536 12.2222 9.94444ZM12.2222 19.6111C10.3068 19.6111 8.46977 20.4598 7.11534 21.9705C5.76091 23.4812 5 25.5302 5 27.6667C5 28.9485 5.45655 30.1779 6.2692 31.0844C7.08186 31.9908 8.18406 32.5 9.33333 32.5H26.6667C27.8159 32.5 28.9181 31.9908 29.7308 31.0844C30.5435 30.1779 31 28.9485 31 27.6667C31 25.5302 30.2391 23.4812 28.8847 21.9705C27.5302 20.4598 25.6932 19.6111 23.7778 19.6111H12.2222Z" fill="#C7C6C5"/>
</svg>
