<svg width="32" height="32" viewBox="0 0 32 32" fill="none" xmlns="http://www.w3.org/2000/svg">
<path d="M24.875 6.125H23.6064C24.4082 7.50586 24.875 9.104 24.875 10.8125C24.875 15.9819 20.6694 20.1875 15.5 20.1875C10.3306 20.1875 6.125 15.9819 6.125 10.8125C6.125 9.104 6.5918 7.50586 7.39355 6.125H6.125C4.40186 6.125 3 7.52686 3 9.25V24.875C3 26.5981 4.40186 28 6.125 28H24.875C26.5981 28 28 26.5981 28 24.875V9.25C28 7.52686 26.5981 6.125 24.875 6.125ZM15.5 18.625C19.8149 18.625 23.3125 15.1274 23.3125 10.8125C23.3125 6.49756 19.8149 3 15.5 3C11.1851 3 7.6875 6.49756 7.6875 10.8125C7.6875 15.1274 11.1851 18.625 15.5 18.625ZM15.4854 11.2061L17.125 7.37988C17.2959 6.98096 17.7568 6.79785 18.1519 6.96924C18.5483 7.13916 18.7319 7.59863 18.5625 7.99463L16.9185 11.8301C17.2446 12.1797 17.4531 12.6411 17.4531 13.1562C17.4531 14.2349 16.5786 15.1094 15.5 15.1094C14.4214 15.1094 13.5469 14.2349 13.5469 13.1562C13.5469 12.083 14.4141 11.2144 15.4854 11.2061Z" fill="#407BFF"/>
</svg>
